<mxfile host="app.diagrams.net" modified="2023-11-12T13:26:17.734Z" agent="Mozilla/5.0 (Windows NT 10.0; Win64; x64; rv:109.0) Gecko/20100101 Firefox/119.0" etag="nIu3nrjrGgCvDD6XqIDh" version="22.1.0" type="device">
  <diagram name="Seite-1" id="3EOT14itqVy4s9VKB7AF">
    <mxGraphModel dx="1877" dy="1707" grid="1" gridSize="10" guides="1" tooltips="1" connect="1" arrows="1" fold="1" page="1" pageScale="1" pageWidth="827" pageHeight="1169" math="0" shadow="0">
      <root>
        <mxCell id="0" />
        <mxCell id="1" parent="0" />
        <mxCell id="eIkAU1rpNv1f1Uvf1igj-11" value="" style="whiteSpace=wrap;html=1;aspect=fixed;labelBackgroundColor=none;" vertex="1" parent="1">
          <mxGeometry x="110" y="-10" width="380" height="380" as="geometry" />
        </mxCell>
        <mxCell id="_2PlGtxHBfRLoOzQEZn--1" value="&lt;div&gt;Kartenverkauf&lt;/div&gt;" style="rounded=0;whiteSpace=wrap;html=1;points=[[0,0,0,0,0],[0,0.25,0,0,0],[0,0.5,0,0,0],[0,0.75,0,0,0],[0,1,0,0,0],[0.2,1,0,0,0],[0.25,0,0,0,0],[0.25,1,0,0,0],[0.4,1,0,0,0],[0.5,0,0,0,0],[0.5,1,0,0,0],[0.6,1,0,0,0],[0.75,0,0,0,0],[0.75,1,0,0,0],[0.8,1,0,0,0],[1,0,0,0,0],[1,0.25,0,0,0],[1,0.5,0,0,0],[1,0.75,0,0,0],[1,1,0,0,0]];shadow=1;" parent="1" vertex="1">
          <mxGeometry x="280" y="160" width="120" height="80" as="geometry" />
        </mxCell>
        <mxCell id="_2PlGtxHBfRLoOzQEZn--2" value="Informationssystem Zootiere" style="rounded=0;whiteSpace=wrap;html=1;shadow=1;" parent="1" vertex="1">
          <mxGeometry x="140" y="50" width="120" height="80" as="geometry" />
        </mxCell>
        <mxCell id="_2PlGtxHBfRLoOzQEZn--3" value="Benachrichtigungs-Komponente Wartezeiten" style="rounded=0;whiteSpace=wrap;html=1;shadow=1;" parent="1" vertex="1">
          <mxGeometry x="280" y="270" width="120" height="80" as="geometry" />
        </mxCell>
        <mxCell id="_2PlGtxHBfRLoOzQEZn--4" value="Tierpatenschafts-verwaltung" style="rounded=0;whiteSpace=wrap;html=1;shadow=1;" parent="1" vertex="1">
          <mxGeometry x="280" y="50" width="120" height="80" as="geometry" />
        </mxCell>
        <mxCell id="_2PlGtxHBfRLoOzQEZn--5" value="Votingsystem Tiernamen" style="rounded=0;whiteSpace=wrap;html=1;shadow=1;" parent="1" vertex="1">
          <mxGeometry x="140" y="160" width="120" height="80" as="geometry" />
        </mxCell>
        <mxCell id="eIkAU1rpNv1f1Uvf1igj-5" value="" style="endArrow=none;html=1;rounded=0;entryX=1;entryY=0.5;entryDx=0;entryDy=0;exitX=0;exitY=0.5;exitDx=0;exitDy=0;" edge="1" parent="1" source="_2PlGtxHBfRLoOzQEZn--2" target="eIkAU1rpNv1f1Uvf1igj-7">
          <mxGeometry width="50" height="50" relative="1" as="geometry">
            <mxPoint x="209" y="188.96000000000004" as="sourcePoint" />
            <mxPoint x="90" y="110" as="targetPoint" />
          </mxGeometry>
        </mxCell>
        <mxCell id="eIkAU1rpNv1f1Uvf1igj-6" value="&lt;div&gt;Eventbenach-richtigung&amp;nbsp;&lt;/div&gt;&lt;div&gt;Fütterungen&lt;/div&gt;" style="rounded=0;whiteSpace=wrap;html=1;points=[[0,0,0,0,0],[0,0.25,0,0,0],[0,0.5,0,0,0],[0,0.75,0,0,0],[0,1,0,0,0],[0.2,1,0,0,0],[0.25,0,0,0,0],[0.25,1,0,0,0],[0.4,1,0,0,0],[0.5,0,0,0,0],[0.5,1,0,0,0],[0.6,1,0,0,0],[0.75,0,0,0,0],[0.75,1,0,0,0],[0.8,1,0,0,0],[1,0,0,0,0],[1,0.25,0,0,0],[1,0.5,0,0,0],[1,0.75,0,0,0],[1,1,0,0,0]];shadow=1;" vertex="1" parent="1">
          <mxGeometry x="140" y="270" width="120" height="80" as="geometry" />
        </mxCell>
        <mxCell id="eIkAU1rpNv1f1Uvf1igj-7" value="Tierart-Informationssystem der Universität" style="rounded=0;whiteSpace=wrap;html=1;shadow=1;" vertex="1" parent="1">
          <mxGeometry x="-50" y="60" width="120" height="80" as="geometry" />
        </mxCell>
        <mxCell id="eIkAU1rpNv1f1Uvf1igj-10" value="interaktive Zoo-Erlebnisapp" style="rounded=0;whiteSpace=wrap;html=1;" vertex="1" parent="1">
          <mxGeometry x="180" y="-10" width="230" height="20" as="geometry" />
        </mxCell>
      </root>
    </mxGraphModel>
  </diagram>
</mxfile>
